<svg xmlns="http://www.w3.org/2000/svg" viewBox="0 0 512 512"><defs><style>.cls-1{isolation:isolate;}.cls-2{fill:#2a1d30;}.cls-3,.cls-7{opacity:0.5;}.cls-4{fill:#5d436e;}.cls-5{fill:#543966;}.cls-6{fill:#37d320;}.cls-7{mix-blend-mode:multiply;}.cls-8{opacity:0.3;}.cls-9{fill:#fff;}.cls-10{fill:#3e2945;}.cls-11,.cls-19{fill:#f7bf9a;}.cls-12,.cls-14{fill:#fed9be;}.cls-13{fill:#f79820;}.cls-14,.cls-19{fill-rule:evenodd;}.cls-15{fill:#f9ac67;}.cls-16{fill:#f88f1c;}.cls-17{fill:#f79c41;}.cls-18{fill:#90278e;}.cls-20{fill:#8e3d7c;}.cls-21{fill:#d49f77;}.cls-22{fill:#dda78a;}.cls-23{opacity:0.35;}</style></defs><title>cave, man, emoticon, emoji, sticker, bath</title><g class="cls-1"><g id="social_media" data-name="social media"><g id="jacuzzi"><path class="cls-2" d="M417.54,327.15c5.36,11.64,19.6,18.68,31.82,15.73s17.78-14.8,12.42-26.44-19.6-18.68-31.82-15.73S412.19,315.51,417.54,327.15Z"/><g class="cls-3"><path class="cls-4" d="M434.66,314.6A10,10,0,0,0,445.6,320c4.2-1,6.12-5.09,4.27-9.1a10,10,0,0,0-10.95-5.41C434.73,306.52,432.81,310.59,434.66,314.6Z"/></g><path class="cls-2" d="M94.46,327.15c-5.36,11.64-19.6,18.68-31.82,15.73s-17.78-14.8-12.42-26.44S69.81,297.75,82,300.71,99.81,315.51,94.46,327.15Z"/><g class="cls-3"><path class="cls-4" d="M77.34,314.6A10,10,0,0,1,66.4,320c-4.2-1-6.12-5.09-4.27-9.1a10,10,0,0,1,10.95-5.41C77.27,306.52,79.19,310.59,77.34,314.6Z"/></g><path class="cls-2" d="M436.28,359.9c0,72.93-81.47,122.22-182,122.22s-182-49.29-182-122.22,81.47-104,182-104S436.28,287,436.28,359.9Z"/><g class="cls-3"><path class="cls-5" d="M72.81,350.56c33.21,29.15,86,46.39,145.39,46.39,93.24,0,170.09-42.43,180.71-106.8-33.25-23.56-85.65-34.26-144.59-34.26C158.21,255.89,79.52,284.31,72.81,350.56Z"/></g><g class="cls-3"><path class="cls-5" d="M219.61,444.88c107.74,0,195.07-52.84,195.07-131a99,99,0,0,0-.56-10.61c-30.87-32.74-90.86-47.37-159.81-47.37-100.5,0-182,31.09-182,104a94,94,0,0,0,16.46,53.18C123.39,433.35,169.27,444.88,219.61,444.88Z"/></g><ellipse class="cls-2" cx="254.31" cy="268.62" rx="165.47" ry="39.35"/><path class="cls-5" d="M419.78,263.26c0,18.77-74.08,37.67-165.47,37.67S88.83,282,88.83,263.26s74.08-34,165.47-34S419.78,244.49,419.78,263.26Z"/><ellipse class="cls-2" cx="254.31" cy="263.26" rx="131.62" ry="27.03"/><path class="cls-6" d="M254.31,248.51c-62.4,0-114.62,8.92-128.16,20.89,13.55,12,65.76,20.89,128.16,20.89s114.62-8.92,128.16-20.89C368.92,257.43,316.7,248.51,254.31,248.51Z"/><g class="cls-7"><path class="cls-6" d="M271.08,253.38c-45.27,0-84.38,5.49-102.92,13.46-5.22,2.24-5.22,7.75,0,10,18.53,8,57.64,13.46,102.92,13.46,54.23,0,99.62-7.88,111.39-18.45C370.7,261.26,325.31,253.38,271.08,253.38Z"/></g><path class="cls-6" d="M355.65,268.06c-18.13-6.62-57.8-11.22-103.86-11.22q-3.65,0-7.25,0c43,.45,79.46,4.9,96.64,11.18,4.72,1.73,4.72,5.69,0,7.41-17.17,6.27-53.69,10.72-96.64,11.18q3.6,0,7.25,0c46.05,0,85.73-4.6,103.86-11.22C360.38,273.74,360.38,269.78,355.65,268.06Z"/><ellipse class="cls-4" cx="126.16" cy="321.79" rx="19.05" ry="13.82"/><ellipse class="cls-4" cx="105.57" cy="341.25" rx="7.76" ry="5.63"/><ellipse class="cls-4" cx="110.25" cy="259.57" rx="12.44" ry="3.69"/><path class="cls-2" d="M363.37,452.44l-5.18,36c-1,6.7-11.82,9.94-19,5.67l-38.33-22.8Z"/><path class="cls-2" d="M145.24,452.44l5.18,36c1,6.7,11.82,9.94,19,5.67l38.33-22.8Z"/><circle class="cls-6" cx="396.26" cy="152.89" r="53.44"/><g class="cls-7"><path class="cls-6" d="M417.63,110a47.95,47.95,0,0,1-60.45,70.34A48,48,0,1,0,417.63,110Z"/></g><g class="cls-8"><circle class="cls-9" cx="383.15" cy="127.92" r="19.57"/></g><g class="cls-8"><circle class="cls-9" cx="360.62" cy="157.34" r="9.45"/></g><g id="wave"><path class="cls-10" d="M151,115.28c1.57-15.84,28.28-28.82,28.28-28.82s-16.62,9.54-20.75,4S161.66,76,185.22,68c0,0-12.11-6.89-10.28-14.43s37.37,1.39,37.37,1.39-15-15.18-6.83-16.44S231.09,46,231.09,46s-13.92-6.33-11.94-12.76,28.76,9,28.76,9-12.56-18.68-1.21-17c7.24,1.07,17.59,16.35,17.59,16.35S253.71,16.16,264.23,16s11.52,25,11.52,25,6.93-25.49,13.52-23.34S283.1,41,283.1,41,319,12.7,325,22.85s-15.68,16.86-17.86,17.86,28.3-9.66,31.6-.84-12.1,12.91-17.45,14.66c0,0,38.45-5.35,40.27,3.14s-20.5,8.41-24.87,8.16c0,0,31.42,10,30.21,16.64s-8.57,3.17-20.54.72c0,0,20.48,8,20.15,17.15s-22.17-.55-22.17-.55,19.64,5.9,22.43,14.8-24.31,17.17-24.31,17.17H181.23S149.41,131.12,151,115.28Z"/><path class="cls-11" d="M270.46,288.74c19-.2,38.15-.84,57-3.05l2.07-21.38c0-17.12-8.18-31.86-19.54-35.22l-18.62-4-63.3,0-18.54,3.92C198.21,232.44,190,247.18,190,264.3L191,281.7C216.54,288.85,244.17,289,270.46,288.74Z"/><path class="cls-12" d="M306.11,287.58c7.15-.45,14.29-1.06,21.39-1.89l2.07-21.38c0-17.12-8.18-31.86-19.54-35.22l-18.62-4-63.3,0-18.54,3.92,74,19Z"/><ellipse class="cls-13" cx="286.51" cy="251.87" rx="6.33" ry="4.8" transform="translate(-94.25 228.47) rotate(-37.8)"/><path class="cls-14" d="M314.2,254.87a12.43,12.43,0,0,0,6.44.72s21.14,7.86,43.2,13.84c11,3,46,9,48.64,2.52,4.61-11.42-94-53-102.16-44.42a19,19,0,0,0-3.54,5.66,17.31,17.31,0,0,0-.63,9.37C306.53,244.73,307.9,252.27,314.2,254.87Z"/><path class="cls-15" d="M309,287.39a43.81,43.81,0,0,1-3.8-8.51c-4.87-14.86-4.31-30.85-7.65-46a1.89,1.89,0,0,1,.56-1.84c-.22-1.55-.45-3.11-.68-4.66a48.32,48.32,0,0,0-9.71-1.3,1.94,1.94,0,0,1-.18,1.15c-1.18,2.33-2.31,4.68-3.45,7-2,12.41-9.52,37.64-10.06,37.77-.08,0-.14.09-.22.12l22.17,17Q302.45,287.83,309,287.39Z"/><path class="cls-16" d="M320.09,355.3l-1.11.41,1,.44Z"/><path class="cls-17" d="M270.46,288.74c8.49-.09,17-.27,25.47-.63l-22.17-17c-2.07.87-13.6,11.36-20.49,17.65C259,288.83,264.78,288.8,270.46,288.74Z"/><path class="cls-18" d="M305.15,278.88a81.2,81.2,0,0,1-2.52-10.07l-4.94,2.13c-3.47,1.5-4.94,4.46-3.26,6.59l0,0c1.68,2.13,6.81,3.87,11.41,3.87h.29C305.82,280.59,305.45,279.78,305.15,278.88Z"/><path class="cls-18" d="M260.4,285.49a65.5,65.5,0,0,0,9.19-1.15c1.91-.66.81-4.36-.49-7.56A66.68,66.68,0,0,1,260.4,285.49Z"/><path class="cls-18" d="M295.89,244.48a60.61,60.61,0,0,0-12.83-3.88c-.34,3-.65,6-1.06,9,1.32-.33,2.68-.72,4.1-1.17C296.9,245,295.89,244.48,295.89,244.48Z"/><path class="cls-19" d="M202.71,254.37a12.43,12.43,0,0,1-6.37,1.14s-20.58,9.24-42.19,16.66c-10.81,3.71-45.31,12-48.36,5.72-5.36-11.09,90.34-59.13,99-51.06a19,19,0,0,1,3.91,5.42,17.31,17.31,0,0,1,1.24,9.3C209.69,243.74,208.82,251.36,202.71,254.37Z"/><path class="cls-10" d="M229.9,271.67c-.19,1.2-.35,2.58.62,3.51a1.9,1.9,0,0,0,2.56.22,1.72,1.72,0,0,0,.17-2.23c-.75-.87-1.78-.35-2.5.24s.3,1.58,1,1l.42-.25q-.8.32-.83-.48a2.47,2.47,0,0,1-.07-1.64c.14-.89-1.23-1.28-1.37-.38Z"/><path class="cls-10" d="M258,275.94c-.19,1.2-.35,2.58.62,3.51a1.9,1.9,0,0,0,2.56.22,1.72,1.72,0,0,0,.17-2.23c-.75-.87-1.78-.35-2.5.24s.3,1.58,1,1l.42-.25q-.8.32-.83-.48a2.47,2.47,0,0,1-.07-1.64c.14-.89-1.23-1.28-1.37-.38Z"/><path class="cls-10" d="M316.53,275.25c-.19,1.2-.35,2.58.62,3.51a1.9,1.9,0,0,0,2.56.22,1.72,1.72,0,0,0,.17-2.23c-.75-.87-1.78-.35-2.5.24s.3,1.58,1,1l.42-.25q-.8.32-.83-.48a2.47,2.47,0,0,1-.07-1.64c.14-.89-1.23-1.28-1.37-.38Z"/><path class="cls-10" d="M239.53,276.42c0,1.33.24,2.68,1.61,3.21a2,2,0,0,0,2.58-1.11,1.66,1.66,0,1,0-3.13-1.09.71.71,0,0,0,1.37.38l.41.29q-.85.56-1.12-.25a2,2,0,0,1-.3-1.43.71.71,0,0,0-1.42,0Z"/><path class="cls-10" d="M237.73,269.8c0,1.33.24,2.68,1.61,3.21a2,2,0,0,0,2.58-1.11,1.66,1.66,0,1,0-3.13-1.09.71.71,0,0,0,1.37.38l.41.29q-.85.56-1.12-.25a2,2,0,0,1-.3-1.43.71.71,0,0,0-1.42,0Z"/><path class="cls-10" d="M232.6,282.59c.54-1.13.92-2.39.06-3.47a2,2,0,0,0-2.89-.33c-1.86,1.58.75,4.17,2.27,2.42.6-.69-.4-1.7-1-1q1,.14.68.79a2.47,2.47,0,0,1-.33.88c-.39.82.83,1.54,1.23.72Z"/><path class="cls-10" d="M247.6,277.75c0,1.33.24,2.68,1.61,3.21a2,2,0,0,0,2.58-1.11,1.66,1.66,0,1,0-3.13-1.09.71.71,0,0,0,1.37.38l.41.29q-.85.56-1.12-.25a2,2,0,0,1-.3-1.43.71.71,0,0,0-1.42,0Z"/><path class="cls-10" d="M307.86,279.29c0,1.33.24,2.68,1.61,3.21a2,2,0,0,0,2.58-1.11,1.66,1.66,0,1,0-3.13-1.09.71.71,0,0,0,1.37.38l.41.29q-.85.56-1.12-.25a2,2,0,0,1-.3-1.43.71.71,0,0,0-1.42,0Z"/><path class="cls-10" d="M220.54,279.74a4.55,4.55,0,0,0,.48-4.12c-.43-.9-1.72-2.13-2.73-1.3s-.37,2.1.21,2.83a4.94,4.94,0,0,0,4.39,1.55c.91-.06.91-1.48,0-1.42-1.16.07-2.93,0-3.49-1.31q-.11-.5.15,0a1.46,1.46,0,0,1,.37,1,3.83,3.83,0,0,1-.61,2.13c-.43.81.8,1.52,1.23.72Z"/><path class="cls-10" d="M314.13,272.2l-.05-.08L314,273l.1-.1-.69.18.13,0-.52-.68c0,.5-1.18.7-1.47.73q-.61.32-.84-.21-.5-.4.16-.31c.47.71-.19,2-.64,2.52-.61.68.4,1.69,1,1a4.05,4.05,0,0,0,.81-4.43,1.52,1.52,0,0,0-2.87,0,2.29,2.29,0,0,0,1.71,3c1.24.25,3.68-.71,3.57-2.24a.73.73,0,0,0-.52-.68.88.88,0,0,0-.92.26.72.72,0,0,0-.11.86l.05.08c.48.78,1.71.06,1.23-.72Z"/><ellipse class="cls-20" cx="262.68" cy="197.51" rx="53.13" ry="28.31"/><ellipse class="cls-21" cx="262.68" cy="191.37" rx="53.13" ry="28.31"/><path class="cls-11" d="M342.19,158.12C337.08,133,334,103.6,316,82.19c-38.4-45.57-109.81-22.57-128.72,22.57-10.65,26.16-28.41,79.13,10.78,91.72C246,211.77,353.81,215.24,342.19,158.12Z"/><path class="cls-12" d="M225.83,104.75c9.25-22.08,31.07-38.85,55.43-44.9-36.93-9.92-79.94,11.38-94,44.9-10.65,26.16-28.41,79.13,10.78,91.72,22.09,7,56.9,11.58,86.89,8.83-18.12-1.45-35.4-4.71-48.32-8.83C197.41,183.88,215.18,130.92,225.83,104.75Z"/><path class="cls-21" d="M176.86,111.4l.33.74a2.49,2.49,0,0,1-.14-.34C177,111.68,176.94,111.54,176.86,111.4Z"/><path class="cls-21" d="M177.22,112.18l0,0-.05-.09A.11.11,0,0,1,177.22,112.18Z"/><path class="cls-21" d="M177.06,111.79a2.49,2.49,0,0,0,.14.34l.05.09C177.34,112.38,177.25,112.2,177.06,111.79Z"/><path class="cls-21" d="M340.49,111.4l-.33.74a2.86,2.86,0,0,0,.13-.34C340.36,111.68,340.42,111.54,340.49,111.4Z"/><path class="cls-21" d="M340.14,112.18l0,0,.06-.09S340.14,112.17,340.14,112.18Z"/><path class="cls-21" d="M340.3,111.79a2.86,2.86,0,0,1-.13.34l-.06.09C340,112.38,340.1,112.2,340.3,111.79Z"/><path class="cls-10" d="M372.38,192.8c-2.2-8.19-19.82-20.61-19.82-20.61,24.55,6.37,15.73-7.88,15.73-7.88-4.4-8.79-24.86-15.46-24.86-15.46,27.06-3,10.7-13.64,10.7-13.64-15.73-8.49-38.39-7-38.39-7,12.9-5.15,14.16-13.64,14.16-13.64-1.26-5.46-11.64-6.06-11.64-6.06-1.47.07-2.86.21-4.18.4-.44.06-.84.16-1.26.23-.85.15-1.7.3-2.49.49-.48.12-.92.26-1.37.39-.67.19-1.35.38-2,.6-.46.16-.88.34-1.31.52s-1.13.45-1.65.7-.81.41-1.2.62-1,.51-1.4.78-.73.47-1.09.71-.8.55-1.17.83-.65.51-1,.77-.66.56-1,.85-.58.55-.85.82-.27.25-.39.38h0a23.43,23.43,0,0,0-5.75,10c8.36,8.82-.81,14.35-3.18,15.3s-11.6,12.06-30,12.06-27.67-11.14-30-12.06-11.54-6.48-3.18-15.3a23.43,23.43,0,0,0-5.75-10h0c-.12-.13-.27-.25-.39-.38s-.56-.55-.85-.82-.64-.57-1-.85-.63-.52-1-.77-.77-.56-1.17-.83-.71-.48-1.09-.71-.92-.52-1.4-.78-.78-.42-1.2-.62-1.09-.47-1.65-.7-.85-.36-1.31-.52c-.62-.22-1.3-.41-2-.6-.46-.13-.89-.28-1.37-.39-.79-.19-1.64-.34-2.49-.49-.43-.07-.82-.17-1.26-.23-1.32-.19-2.71-.33-4.18-.4,0,0-10.38.61-11.64,6.06,0,0,1.26,8.49,14.16,13.64,0,0-22.66-1.52-38.39,7,0,0-16.36,10.61,10.7,13.64,0,0-20.45,6.67-24.86,15.46,0,0-8.81,14.25,15.73,7.88,0,0-17.62,12.43-19.82,20.61,0,0-3.78,10.3,17-1.21,0,0-7.87,9.7-10.7,18.79s2.66,10.12,12,4.76c0,0-7.94,10.09-8.57,17.37s1.33,22.31,18.92-2.48c0,0-4.76,19.46-1,27.34,0,0,5,4.24,8.18,1.21s5.66-9.7,5.35-13.34c0,0,3.78,18.18,15.73,23,0,0,8.81,2.43,10.38-13.64,0,0,5,11.21,14.16,14.55s13.84-1.82,13.53-13.64c0,0,4.12,18,19.47,18s21.1-18,21.1-18c-.31,11.82,4.41,17,13.53,13.64S305,254.63,305,254.63c1.57,16.07,10.38,13.64,10.38,13.64,12-4.85,15.73-23,15.73-23-.31,3.64,2.2,10.3,5.35,13.34s8.18-1.21,8.18-1.21c3.77-7.88-1-27.34-1-27.34,17.59,24.8,19.54,9.76,18.92,2.48s-8.57-17.37-8.57-17.37c9.37,5.36,14.86,4.34,12-4.76s-10.7-18.79-10.7-18.79C376.16,203.1,372.38,192.8,372.38,192.8Z"/><path class="cls-22" d="M286.88,122.18a29.11,29.11,0,0,0,55.89,1A148.19,148.19,0,0,0,286.88,122.18Z"/><path class="cls-22" d="M344,115.42c0-.29,0-.58,0-.87a29.12,29.12,0,0,0-58.23-.12A158.2,158.2,0,0,1,344,115.42Z"/><path class="cls-10" d="M285.84,114.43s0,.08,0,.12a29,29,0,0,0,1,7.63,148.19,148.19,0,0,1,55.89,1,29.08,29.08,0,0,0,1.26-7.76A158.2,158.2,0,0,0,285.84,114.43Z"/><path class="cls-22" d="M227.27,122.18a29.11,29.11,0,0,1-55.89,1A148.19,148.19,0,0,1,227.27,122.18Z"/><path class="cls-22" d="M170.12,115.42c0-.29,0-.58,0-.87a29.12,29.12,0,0,1,58.23-.12A158.2,158.2,0,0,0,170.12,115.42Z"/><path class="cls-10" d="M228.31,114.43s0,.08,0,.12a29,29,0,0,1-1,7.63,148.19,148.19,0,0,0-55.89,1,29.08,29.08,0,0,1-1.26-7.76A158.2,158.2,0,0,1,228.31,114.43Z"/><path class="cls-5" d="M344.75,75.49c-2.71-4-7.06-6.14-12.15-7a5.9,5.9,0,0,0-6-9.37,33.3,33.3,0,0,0-10.72,4.16,6.19,6.19,0,0,0-4-5c-9.62-4-21,7.91-25,15.3a6.26,6.26,0,0,0,3.32,8.71,17.61,17.61,0,0,0,6.43,1c13.88.48,30.59,3.74,44.23.78C344.23,83.29,346.91,78.7,344.75,75.49Z"/><path class="cls-5" d="M164.85,79.45c2.48-4.19,6.72-6.52,11.75-7.68a5.9,5.9,0,0,1,5.48-9.69A33.3,33.3,0,0,1,193,65.65a6.19,6.19,0,0,1,3.74-5.25c9.39-4.51,21.36,6.76,25.84,13.92a6.26,6.26,0,0,1-2.85,8.88,17.61,17.61,0,0,1-6.37,1.38C199.53,85.81,183,90,169.25,87.76,165.79,87.21,162.87,82.78,164.85,79.45Z"/><g class="cls-23"><path class="cls-2" d="M227.1,151c2.34.93,11.6,12.06,30,12.06s27.67-11.14,30-12.06,14.82-7.31,6.62-16.07a8.26,8.26,0,0,1-1.87,4.53,13.16,13.16,0,0,1-4.75,3.45c-2.34.93-11.6,12.06-30,12.06s-27.67-11.14-30-12.06a14.79,14.79,0,0,1-4-2.55c-1.45-1.43-2.09-3.21-2.74-3.74C212.21,145.39,224.74,150.06,227.1,151Z"/></g></g><circle class="cls-6" cx="113.33" cy="199.25" r="30.49"/><g class="cls-7"><path class="cls-6" d="M125.52,174.77A27.36,27.36,0,0,1,91,214.9a27.38,27.38,0,1,0,34.49-40.13Z"/></g><g class="cls-8"><circle class="cls-9" cx="105.85" cy="185" r="11.16"/></g><g class="cls-8"><circle class="cls-9" cx="92.99" cy="201.79" r="5.39"/></g><circle class="cls-6" cx="293.73" cy="253.38" r="19.67"/><g class="cls-7"><path class="cls-6" d="M301.6,237.59a17.65,17.65,0,0,1-22.25,25.89,17.66,17.66,0,1,0,22.25-25.89Z"/></g><g class="cls-8"><circle class="cls-9" cx="288.91" cy="244.19" r="7.2"/></g><g class="cls-8"><circle class="cls-9" cx="280.61" cy="255.02" r="3.48"/></g><path class="cls-5" d="M198.8,188.18c40.49,21.7,87.74,16.73,122.86-12.77,4.2-3.53-1.85-9.53-6-6-32.08,26.94-75.66,31.2-112.54,11.44-4.83-2.59-9.14,4.76-4.3,7.35Z"/></g></g></g></svg>